<?xml version="1.0" standalone="no"?>
<!DOCTYPE svg PUBLIC "-//W3C//DTD SVG 20010904//EN"
 "http://www.w3.org/TR/2001/REC-SVG-20010904/DTD/svg10.dtd">
<svg version="1.0" xmlns="http://www.w3.org/2000/svg"
 viewBox="0 0 512.000000 512.000000"
 preserveAspectRatio="xMidYMid meet">

<g transform="translate(0.000000,512.000000) scale(0.100000,-0.100000)"
fill="#000000" stroke="none">
<path d="M2490 5111 c-119 -39 -200 -156 -187 -270 l5 -46 -49 -29 c-105 -64
-201 -190 -242 -321 -20 -65 -22 -90 -22 -325 0 -280 5 -310 67 -434 35 -70
120 -162 189 -207 45 -28 49 -34 49 -69 l0 -39 -232 -76 c-128 -42 -255 -89
-282 -103 -63 -35 -154 -125 -188 -188 -14 -27 -47 -119 -73 -204 -64 -215
-99 -307 -167 -443 -119 -239 -209 -357 -565 -744 -96 -105 -125 -143 -138
-184 -30 -90 -5 -187 67 -256 71 -68 183 -84 274 -38 62 31 533 502 621 621
74 101 132 213 218 426 38 93 70 166 73 164 2 -2 14 -68 26 -146 26 -159 39
-184 98 -182 41 1 68 32 68 77 0 35 -60 381 -84 485 -16 68 -49 110 -86 110
-44 0 -68 -44 -195 -355 -127 -312 -171 -400 -253 -510 -25 -33 -161 -173
-301 -312 -238 -235 -258 -252 -292 -253 -47 0 -86 31 -95 74 -8 45 4 66 90
156 473 498 626 742 776 1236 29 93 62 187 75 210 29 49 90 106 142 132 40 20
462 162 481 162 7 0 30 -13 53 -29 86 -63 212 -63 298 0 23 16 47 29 54 29 20
0 448 -145 485 -164 48 -25 110 -83 137 -130 13 -23 46 -117 75 -210 150 -494
303 -738 776 -1236 86 -90 98 -111 90 -156 -9 -43 -48 -74 -95 -74 -34 1 -54
18 -292 253 -140 139 -276 279 -300 312 -83 110 -127 197 -254 510 -127 310
-151 355 -195 355 -43 0 -70 -41 -91 -135 -64 -286 -108 -617 -116 -865 -6
-205 4 -274 54 -376 66 -134 163 -217 388 -328 173 -86 327 -142 602 -221 125
-36 255 -78 288 -94 204 -95 252 -315 99 -450 -77 -68 -98 -71 -439 -71 -289
0 -302 -1 -323 -20 -30 -28 -30 -82 1 -110 22 -21 29 -21 352 -18 l330 3 68
32 c174 83 277 265 247 435 -26 139 -123 263 -261 330 -40 20 -168 64 -284 97
-342 97 -533 171 -712 273 -103 59 -146 94 -191 157 -70 97 -86 230 -62 511
11 129 46 383 64 461 l11 51 69 -168 c88 -216 145 -327 219 -428 88 -119 559
-590 621 -621 91 -46 203 -30 274 38 72 69 97 166 67 256 -14 42 -41 78 -134
179 -365 397 -448 506 -569 749 -68 136 -102 226 -168 443 -55 185 -81 235
-156 310 -74 75 -154 112 -410 194 l-208 67 0 38 c0 36 4 42 50 71 67 43 154
139 189 209 61 120 66 152 66 431 0 235 -2 260 -22 325 -42 131 -137 257 -243
321 -48 29 -49 30 -43 70 12 93 -52 211 -140 256 -45 22 -145 33 -187 19z
m120 -156 c33 -17 60 -61 60 -97 0 -13 -9 -37 -19 -54 -40 -66 -142 -66 -182
0 -23 37 -24 67 -4 106 28 54 90 73 145 45z m-169 -322 c76 -40 162 -39 241 1
l57 29 44 -27 c91 -53 165 -164 186 -280 16 -87 14 -407 -3 -488 -23 -107 -76
-189 -164 -253 l-45 -32 -43 33 c-60 45 -136 61 -209 45 -33 -7 -73 -26 -99
-45 l-43 -33 -44 32 c-143 104 -179 203 -179 505 0 261 21 342 113 447 29 34
111 93 128 93 4 0 31 -12 60 -27z m169 -1128 c32 -17 60 -61 60 -95 0 -34 -28
-78 -60 -95 -16 -8 -38 -15 -50 -15 -53 0 -110 57 -110 110 0 33 28 78 58 94
35 20 66 20 102 1z"/>
<path d="M2442 4364 c-76 -38 -128 -114 -139 -202 -11 -93 34 -185 119 -243
48 -32 55 -34 137 -34 95 0 126 12 180 66 54 54 75 105 76 184 0 59 -5 78 -29
123 -49 89 -124 132 -229 132 -48 0 -76 -6 -115 -26z m190 -153 c28 -25 33
-36 33 -76 0 -40 -5 -51 -33 -76 -24 -22 -42 -29 -72 -29 -30 0 -48 7 -72 29
-28 25 -33 36 -33 76 0 40 5 51 33 76 24 22 42 29 72 29 30 0 48 -7 72 -29z"/>
<path d="M2455 2921 c-50 -22 -99 -70 -128 -125 -34 -64 -31 -165 7 -234 49
-89 124 -132 228 -132 103 1 181 49 231 144 30 57 30 165 0 222 -51 96 -128
144 -233 144 -42 0 -79 -7 -105 -19z m177 -160 c28 -25 33 -36 33 -76 0 -40
-5 -51 -33 -76 -24 -22 -42 -29 -72 -29 -30 0 -48 7 -72 29 -28 25 -33 36 -33
76 0 40 5 51 33 76 24 22 42 29 72 29 30 0 48 -7 72 -29z"/>
<path d="M2476 2204 c-94 -29 -176 -143 -176 -244 0 -133 127 -260 260 -260
133 0 260 127 260 260 0 104 -82 215 -181 244 -64 19 -99 19 -163 0z m134
-149 c32 -17 60 -61 60 -95 0 -53 -57 -110 -110 -110 -34 0 -78 28 -95 60 -19
37 -19 63 0 100 28 54 90 73 145 45z"/>
<path d="M2010 1790 c-18 -18 -20 -33 -20 -154 0 -235 -53 -337 -229 -445
-171 -104 -416 -200 -761 -297 -107 -30 -229 -72 -270 -92 -181 -89 -292 -278
-261 -447 25 -138 118 -256 248 -318 l68 -32 1298 -3 1298 -2 24 24 c32 32 32
70 0 101 l-24 25 -1269 0 c-1416 0 -1320 -5 -1406 71 -118 104 -121 267 -5
379 64 62 113 83 381 161 359 104 550 180 743 294 120 70 197 145 247 241 52
99 68 174 68 330 0 118 -2 134 -21 158 -26 33 -79 36 -109 6z"/>
<path d="M2472 1477 c-44 -14 -118 -81 -143 -129 -43 -84 -35 -177 24 -264 94
-141 320 -141 414 0 79 116 66 242 -34 338 -63 62 -171 84 -261 55z m160 -166
c28 -25 33 -36 33 -76 0 -40 -5 -51 -33 -76 -45 -40 -99 -40 -144 0 -28 25
-33 36 -33 76 0 40 5 51 33 76 24 22 42 29 72 29 30 0 48 -7 72 -29z"/>
<path d="M2476 754 c-96 -30 -176 -143 -176 -250 0 -85 66 -186 150 -230 52
-27 172 -26 226 3 81 43 144 145 144 233 0 104 -82 215 -181 244 -64 19 -99
19 -163 0z m129 -148 c35 -15 65 -59 65 -96 0 -53 -57 -110 -110 -110 -53 0
-110 57 -110 110 0 36 30 81 63 95 41 18 50 18 92 1z"/>
</g>
</svg>
