<?xml version="1.0" standalone="no"?>
<!DOCTYPE svg PUBLIC "-//W3C//DTD SVG 20010904//EN"
 "http://www.w3.org/TR/2001/REC-SVG-20010904/DTD/svg10.dtd">
<svg version="1.0" xmlns="http://www.w3.org/2000/svg"
 width="512.000000pt" height="512.000000pt" viewBox="0 0 512.000000 512.000000"
 preserveAspectRatio="xMidYMid meet">

<g transform="translate(0.000000,512.000000) scale(0.100000,-0.100000)"
fill="#000000" stroke="none">
<path d="M3822 4274 c-89 -44 -132 -116 -132 -220 1 -205 266 -306 408 -156
57 62 80 179 49 255 -53 125 -204 182 -325 121z m163 -130 c29 -19 48 -72 39
-108 -9 -38 -59 -76 -99 -76 -41 0 -91 39 -100 79 -19 87 84 155 160 105z"/>
<path d="M432 3937 c-12 -13 -22 -33 -22 -44 0 -51 19 -59 425 -170 l390 -107
515 103 515 103 585 -91 c322 -50 596 -97 610 -104 29 -15 37 -41 20 -62 -11
-13 -119 -15 -758 -15 l-746 0 -180 -72 c-99 -40 -188 -80 -198 -90 -38 -38
-7 -108 47 -108 14 0 98 29 187 65 l162 65 338 0 338 0 0 -25 c0 -59 -61 -141
-123 -164 -17 -7 -123 -11 -265 -11 -265 0 -267 0 -301 -68 -10 -21 -43 -60
-72 -88 -93 -87 -196 -124 -345 -124 -151 0 -283 29 -504 112 -169 63 -278 86
-453 94 -135 7 -138 7 -162 -16 -30 -28 -32 -59 -6 -91 17 -21 29 -24 162 -30
179 -9 253 -25 419 -89 152 -58 251 -85 388 -105 183 -28 319 -12 450 51 74
36 188 132 219 185 l16 27 231 4 c226 3 232 4 287 29 104 49 180 151 195 262
l7 47 321 0 c198 0 336 4 360 11 55 15 113 74 127 129 22 86 -23 174 -104 204
-23 9 -315 59 -650 112 l-607 95 -510 -102 -510 -102 -373 101 c-205 56 -379
102 -388 102 -9 0 -25 -10 -37 -23z"/>
<path d="M4328 3175 c-54 -30 -42 -116 18 -131 87 -22 127 106 42 135 -17 6
-31 11 -32 11 -1 -1 -13 -7 -28 -15z"/>
<path d="M2725 2856 c-200 -32 -424 -141 -600 -289 -78 -66 -85 -75 -85 -113
0 -29 10 -42 72 -95 272 -234 600 -345 886 -299 201 33 451 156 620 306 92 81
90 109 -17 197 -279 229 -603 338 -876 293z m261 -154 c257 -131 167 -513
-120 -513 -198 0 -326 197 -246 379 27 61 92 124 153 146 57 21 160 15 213
-12z m-507 -123 c-24 -78 -24 -177 1 -249 10 -30 17 -56 16 -57 -5 -5 -156 85
-221 132 -75 53 -75 51 7 112 50 36 197 123 209 123 4 0 -2 -27 -12 -61z m859
2 c66 -40 113 -72 172 -119 7 -5 -41 -43 -120 -96 -65 -43 -150 -90 -150 -82
0 2 6 21 14 42 29 85 26 206 -9 287 -11 27 5 21 93 -32z"/>
<path d="M2850 2523 c-51 -19 -66 -77 -30 -113 51 -51 132 3 108 71 -7 20 -48
53 -61 48 -1 0 -9 -3 -17 -6z"/>
<path d="M1151 2084 c-29 -37 -26 -59 13 -101 l34 -38 -34 -37 c-40 -45 -43
-70 -9 -103 33 -34 58 -31 103 9 l37 34 38 -34 c42 -39 74 -43 105 -14 31 30
28 70 -8 105 -16 16 -30 34 -30 40 0 6 14 24 30 40 36 34 39 76 10 105 -28 28
-64 25 -103 -10 -19 -16 -39 -30 -44 -30 -5 0 -22 14 -38 30 -37 38 -76 40
-104 4z"/>
<path d="M3448 1980 c-80 -14 -174 -49 -235 -89 -56 -36 -173 -152 -173 -172
0 -5 -81 -9 -200 -9 -206 0 -278 -9 -343 -42 -86 -43 -157 -147 -172 -250 l-7
-47 -342 -3 c-376 -3 -375 -3 -430 -68 -73 -88 -50 -213 49 -266 31 -17 177
-43 655 -119 l615 -97 513 102 512 102 369 -101 c203 -56 378 -101 390 -101
28 0 61 34 61 64 0 54 -16 60 -424 172 l-390 106 -514 -103 -513 -102 -587 92
c-323 50 -597 94 -609 96 -27 6 -41 49 -23 70 11 13 110 15 759 15 l746 0 180
71 c99 39 188 80 198 91 35 40 6 108 -46 108 -12 0 -96 -29 -185 -65 l-162
-65 -341 0 -342 0 6 41 c7 53 50 107 107 137 42 21 55 22 285 22 271 0 252 -5
304 82 30 50 110 121 166 147 89 42 161 54 280 48 167 -9 210 -20 557 -142
106 -38 213 -56 364 -62 135 -6 142 -5 163 16 26 26 27 61 3 91 -17 21 -30 24
-168 31 -177 9 -237 22 -420 90 -269 99 -493 136 -656 109z"/>
<path d="M778 1195 c-54 -30 -42 -116 18 -131 83 -21 126 99 48 135 -31 14
-33 14 -66 -4z"/>
</g>
</svg>
