<?xml version="1.0" standalone="no"?>
<!DOCTYPE svg PUBLIC "-//W3C//DTD SVG 20010904//EN"
 "http://www.w3.org/TR/2001/REC-SVG-20010904/DTD/svg10.dtd">
<svg version="1.0" xmlns="http://www.w3.org/2000/svg"
 width="512.000000pt" height="512.000000pt" viewBox="0 0 512.000000 512.000000"
 preserveAspectRatio="xMidYMid meet">

<g transform="translate(0.000000,512.000000) scale(0.100000,-0.100000)"
fill="#000000" stroke="none">
<path d="M2515 5108 c-30 -16 -45 -39 -45 -69 0 -79 -106 -239 -286 -429 -56
-59 -105 -123 -130 -168 -1 -1 -24 9 -52 23 -28 14 -104 41 -169 61 -216 65
-360 135 -429 210 -36 37 -48 44 -81 44 -76 0 -110 -56 -77 -126 34 -70 17
-295 -37 -509 -11 -43 -23 -110 -26 -147 l-6 -68 -51 0 c-28 0 -98 -11 -155
-25 -226 -55 -424 -71 -498 -40 -53 22 -81 19 -114 -14 -46 -46 -40 -80 25
-144 72 -72 132 -195 201 -411 30 -94 64 -185 75 -203 l19 -32 -36 -22 c-20
-13 -91 -72 -157 -132 -178 -162 -314 -252 -392 -263 -50 -6 -69 -19 -84 -53
-23 -57 14 -121 69 -121 82 0 239 -105 431 -286 59 -56 123 -105 168 -130 1
-1 -9 -24 -23 -52 -14 -28 -41 -104 -61 -169 -64 -213 -146 -380 -209 -429
-99 -75 -30 -210 81 -158 71 34 294 18 509 -37 43 -11 110 -23 147 -26 l68 -6
0 -51 c0 -28 11 -98 25 -155 55 -225 70 -413 40 -496 -21 -59 -18 -83 14 -116
46 -46 81 -40 144 24 69 72 192 132 410 202 95 30 186 63 204 74 l31 20 35
-52 c20 -29 79 -99 133 -157 147 -159 240 -299 250 -376 6 -50 19 -69 53 -84
57 -23 121 14 121 69 0 82 105 239 286 431 56 59 105 123 130 168 1 1 24 -9
52 -23 28 -14 104 -41 169 -61 212 -64 380 -146 428 -209 47 -61 130 -64 160
-5 19 36 19 44 1 83 -35 79 -25 239 30 489 18 86 34 175 34 197 l0 41 53 0
c28 0 99 12 157 26 220 53 424 69 497 39 53 -22 81 -19 114 14 46 46 40 80
-25 144 -72 72 -132 195 -201 410 -30 95 -64 186 -74 204 l-20 32 37 23 c20
12 91 72 157 131 180 164 313 253 391 263 50 6 69 19 84 53 23 57 -14 121 -69
121 -82 0 -239 105 -431 286 -59 56 -123 105 -168 130 -1 1 9 24 23 52 14 28
41 104 61 169 65 216 135 360 210 429 37 36 44 48 44 81 0 76 -56 110 -126 77
-71 -34 -294 -18 -509 37 -43 11 -110 23 -147 26 l-68 6 0 51 c0 28 -9 89 -21
136 -38 161 -50 235 -56 355 -4 98 -3 127 11 159 23 55 20 83 -13 117 -46 46
-81 40 -144 -24 -69 -72 -192 -132 -411 -202 -94 -30 -185 -64 -203 -75 l-32
-19 -23 37 c-12 20 -72 91 -132 157 -156 172 -252 313 -261 386 -6 51 -16 69
-45 84 -34 18 -57 19 -85 3z m126 -427 c31 -42 100 -122 152 -178 132 -140
167 -217 167 -367 0 -123 -38 -263 -69 -251 -9 4 -67 14 -128 23 l-113 16 0
214 c0 239 -6 270 -59 291 -25 11 -37 11 -62 0 -53 -21 -59 -52 -59 -294 0
-204 -1 -215 -19 -215 -10 0 -32 -3 -48 -6 l-30 -6 -17 72 c-21 93 -57 176
-118 270 l-49 74 18 40 c9 21 60 84 113 140 86 92 184 213 221 274 l14 23 15
-22 c7 -12 40 -56 71 -98z m-960 -285 c57 -19 136 -44 174 -56 97 -29 166 -78
225 -158 55 -74 111 -204 113 -265 l2 -39 -90 -32 c-49 -18 -104 -40 -121 -49
l-30 -16 -105 182 c-127 221 -135 231 -184 231 -44 0 -85 -39 -85 -81 0 -14
49 -111 112 -220 l112 -195 -34 -29 c-19 -16 -38 -29 -42 -29 -5 0 -38 31 -75
68 -74 74 -168 140 -250 174 -53 22 -53 22 -53 67 0 25 11 93 25 150 31 125
55 271 55 328 0 75 4 76 80 38 37 -19 114 -50 171 -69z m2007 -8 c6 -62 24
-162 38 -223 15 -60 29 -148 31 -195 4 -73 1 -94 -20 -151 -39 -105 -113 -211
-183 -264 l-35 -26 -55 50 c-30 28 -75 65 -100 83 -30 22 -43 37 -39 47 3 9
53 97 111 197 62 109 104 192 104 208 0 17 -11 39 -30 58 -26 25 -36 29 -63
24 -44 -8 -57 -26 -176 -233 l-104 -181 -46 20 c-25 12 -47 22 -49 23 -1 1 7
27 17 58 29 85 45 208 38 309 l-6 88 42 24 c23 14 89 38 147 55 115 34 265 91
320 121 19 11 37 19 40 20 3 0 11 -51 18 -112z m411 -643 c129 -32 271 -55
333 -55 26 0 49 -4 52 -9 3 -5 -14 -55 -38 -112 -25 -57 -61 -158 -81 -224
-20 -66 -45 -140 -57 -164 -31 -64 -117 -143 -206 -189 -83 -44 -208 -81 -221
-66 -5 5 -17 34 -26 64 -10 30 -30 83 -46 116 l-27 61 181 104 c221 127 231
135 231 184 0 44 -39 85 -81 85 -14 0 -111 -49 -220 -112 l-195 -112 -29 34
c-16 19 -29 38 -29 43 0 4 29 35 64 70 69 68 154 191 182 262 16 44 17 45 63
45 25 0 93 -11 150 -25z m-2795 -9 c102 -39 208 -113 261 -182 l27 -35 -49
-52 c-27 -29 -64 -74 -83 -100 -23 -33 -39 -46 -49 -42 -9 3 -97 53 -197 111
-203 117 -226 123 -268 73 -34 -39 -33 -74 2 -107 15 -15 109 -74 208 -131
l181 -103 -20 -49 c-16 -37 -25 -48 -37 -43 -77 33 -164 47 -298 49 l-144 2
-19 29 c-11 16 -33 74 -50 129 -42 138 -86 259 -120 327 -16 32 -29 60 -29 63
0 3 16 5 36 5 57 0 230 28 334 54 130 33 230 33 314 2z m1536 -14 c237 -63
420 -170 582 -340 169 -177 286 -411 319 -641 17 -117 6 -364 -19 -461 -63
-235 -170 -420 -340 -582 -177 -169 -411 -286 -641 -319 -117 -17 -364 -6
-461 19 -238 63 -415 166 -581 339 -220 229 -329 502 -329 824 0 330 115 605
349 840 176 176 388 290 621 334 111 21 400 14 500 -13z m-1735 -773 c88 -16
137 -38 130 -58 -4 -9 -14 -67 -23 -128 l-16 -113 -214 0 c-239 0 -270 -6
-291 -59 -11 -25 -11 -37 0 -62 21 -53 52 -59 294 -59 204 0 215 -1 215 -19 0
-10 3 -32 6 -48 l6 -30 -72 -17 c-94 -21 -176 -57 -270 -118 l-75 -49 -43 20
c-24 12 -82 58 -130 104 -95 91 -157 142 -244 203 l-56 40 96 71 c54 39 143
114 199 166 107 101 156 133 238 153 64 16 175 17 250 3z m3267 -40 c22 -11
79 -58 127 -103 94 -90 156 -141 243 -203 l57 -40 -57 -39 c-75 -52 -170 -131
-263 -221 -52 -49 -99 -83 -145 -105 -67 -32 -72 -33 -199 -32 -101 0 -143 5
-190 20 -48 16 -59 24 -57 40 1 10 10 70 19 132 l17 112 214 0 c239 0 270 6
291 59 11 25 11 37 0 62 -21 53 -52 59 -294 59 -204 0 -215 1 -215 19 0 10 -3
32 -6 49 -6 30 -6 30 52 42 91 19 202 66 279 119 39 27 74 49 78 50 4 0 26 -8
49 -20z m-3098 -804 c18 -49 40 -104 49 -121 l16 -30 -194 -112 c-106 -62
-198 -118 -204 -125 -6 -8 -14 -28 -17 -45 -5 -26 -1 -36 24 -62 19 -19 41
-30 58 -30 17 0 99 41 208 104 100 58 189 108 198 111 12 5 24 -4 43 -33 l27
-41 -65 -63 c-70 -68 -155 -192 -183 -263 -16 -44 -17 -45 -63 -45 -25 0 -93
11 -150 25 -129 32 -271 55 -333 55 -26 0 -49 4 -53 9 -3 5 13 50 34 100 22
49 56 143 76 208 49 159 61 189 95 238 53 77 194 168 311 199 85 24 87 22 123
-79z m2742 -106 c41 -6 117 -9 169 -7 l96 5 24 -41 c13 -22 36 -84 51 -136 32
-112 82 -246 119 -320 14 -28 25 -53 23 -54 -2 -1 -52 -8 -113 -14 -60 -7
-159 -24 -220 -38 -155 -38 -256 -42 -338 -15 -98 33 -229 123 -278 192 l-21
30 45 48 c24 26 61 71 82 99 20 29 40 52 43 52 3 0 92 -49 197 -110 106 -60
203 -110 217 -110 55 0 98 62 78 114 -11 29 -28 41 -246 166 l-161 92 20 48
20 47 60 -18 c33 -10 93 -23 133 -30z m-2380 -440 c16 -17 60 -54 97 -82 48
-36 66 -55 62 -66 -3 -9 -53 -97 -111 -197 -62 -109 -104 -192 -104 -208 0
-17 11 -39 30 -58 26 -25 36 -29 63 -24 44 8 57 26 176 233 l104 181 46 -20
c25 -12 47 -22 49 -23 1 -1 -7 -27 -17 -58 -29 -85 -45 -208 -38 -309 l6 -88
-42 -24 c-23 -14 -89 -38 -147 -55 -119 -35 -235 -78 -310 -116 -29 -15 -53
-25 -54 -23 -1 2 -8 53 -14 113 -7 61 -24 160 -38 220 -15 61 -29 148 -31 195
-4 73 -1 94 20 152 14 37 42 93 62 124 36 55 137 164 154 164 4 0 20 -14 37
-31z m1831 -147 c74 -74 168 -140 251 -174 52 -22 52 -22 52 -67 0 -25 -11
-93 -25 -150 -31 -125 -55 -271 -55 -328 0 -75 -4 -76 -80 -38 -63 32 -179 74
-345 125 -97 29 -166 78 -225 158 -55 74 -111 204 -113 265 l-2 39 90 32 c50
18 104 40 121 49 l30 16 105 -182 c127 -221 135 -231 184 -231 44 0 85 39 85
81 0 15 -45 105 -104 207 -58 100 -108 188 -111 198 -5 11 4 24 32 42 21 14
39 26 40 26 2 0 33 -31 70 -68z m-1109 -200 l112 -16 0 -214 c0 -239 6 -270
59 -291 25 -11 37 -11 62 0 53 21 59 52 59 294 0 204 1 215 19 215 10 0 32 3
48 6 l30 6 17 -72 c21 -94 57 -176 118 -270 l49 -75 -20 -43 c-12 -24 -58 -82
-104 -130 -94 -99 -147 -162 -204 -243 l-39 -57 -71 97 c-39 53 -114 142 -166
198 -132 140 -167 217 -167 367 0 123 38 263 69 251 9 -4 67 -14 129 -23z"/>
<path d="M2499 3554 c-23 -24 -24 -34 -29 -171 l-5 -145 -70 -18 c-38 -10 -77
-21 -85 -24 -12 -5 -31 21 -78 103 -85 149 -91 156 -142 156 -32 0 -47 -6 -61
-24 -34 -41 -24 -81 47 -203 36 -62 66 -115 67 -118 1 -3 -28 -35 -64 -71
l-65 -66 -118 69 c-83 48 -127 68 -151 68 -39 0 -71 -25 -81 -64 -12 -48 15
-76 144 -150 90 -52 121 -75 116 -86 -3 -8 -14 -46 -24 -85 l-18 -70 -145 -5
c-137 -5 -147 -6 -171 -29 -19 -18 -26 -35 -26 -61 0 -26 7 -43 26 -61 24 -23
34 -24 171 -29 l145 -5 18 -70 c10 -38 21 -77 24 -85 5 -12 -21 -31 -103 -78
-149 -85 -156 -91 -156 -142 0 -32 6 -47 24 -61 41 -34 81 -24 203 47 62 36
115 66 118 67 3 1 35 -28 71 -64 l66 -65 -69 -118 c-48 -83 -68 -127 -68 -151
0 -39 25 -71 64 -81 48 -12 76 15 150 144 52 90 75 121 86 116 8 -3 47 -14 85
-24 l70 -18 5 -145 c5 -137 6 -147 29 -171 34 -36 88 -36 122 0 23 24 24 34
29 171 l5 145 70 18 c39 10 77 21 85 24 11 5 34 -26 86 -116 74 -129 102 -156
150 -144 39 10 64 42 64 81 0 24 -20 68 -68 151 l-69 118 66 65 c36 36 68 65
71 64 3 -1 56 -31 118 -67 122 -71 162 -81 203 -47 18 14 24 29 24 61 0 51 -7
57 -156 142 -82 47 -108 66 -103 78 3 8 14 47 24 85 l18 70 145 5 c137 5 147
6 171 29 19 18 26 35 26 61 0 26 -7 43 -26 61 -24 23 -34 24 -171 29 l-145 5
-18 70 c-10 39 -21 77 -24 85 -5 11 26 34 116 86 129 74 156 102 144 150 -10
39 -42 64 -81 64 -24 0 -68 -20 -151 -68 l-118 -69 -65 66 c-36 36 -65 68 -64
71 1 3 31 56 67 118 47 80 66 123 66 148 0 38 -25 70 -64 80 -48 12 -76 -15
-150 -144 -52 -90 -75 -121 -86 -116 -8 3 -46 14 -85 24 l-70 18 -5 145 c-5
137 -6 147 -29 171 -18 19 -35 26 -61 26 -26 0 -43 -7 -61 -26z m184 -499
c275 -71 442 -350 372 -620 -100 -382 -578 -514 -856 -236 -277 278 -148 753
234 856 69 18 179 19 250 0z"/>
<path d="M2507 2880 c-16 -13 -28 -35 -32 -61 -7 -39 -7 -40 -31 -25 -35 24
-87 20 -112 -7 -26 -28 -29 -77 -6 -111 15 -24 14 -24 -25 -31 -105 -18 -107
-152 -3 -170 l39 -6 -20 -40 c-19 -38 -19 -43 -4 -73 9 -19 28 -38 46 -46 27
-11 36 -10 70 7 l40 20 6 -39 c18 -104 152 -102 170 3 7 39 7 40 31 25 35 -24
87 -20 112 7 26 28 29 77 6 111 -15 24 -14 24 25 31 107 18 107 152 0 170 -39
7 -40 7 -25 31 24 35 20 87 -7 112 -28 26 -77 29 -111 6 -24 -15 -24 -14 -31
25 -8 47 -43 81 -85 81 -15 0 -39 -9 -53 -20z"/>
<path d="M1905 4835 c-66 -65 12 -173 95 -130 78 41 52 155 -35 155 -25 0 -44
-8 -60 -25z"/>
<path d="M3100 4840 c-43 -43 -33 -107 20 -135 83 -43 161 65 95 130 -31 31
-86 34 -115 5z"/>
<path d="M899 4256 c-31 -18 -52 -61 -43 -90 29 -97 164 -84 164 15 0 62 -68
103 -121 75z"/>
<path d="M4151 4259 c-34 -14 -50 -39 -51 -80 -1 -98 135 -108 164 -12 9 29
-16 76 -49 91 -30 14 -32 14 -64 1z"/>
<path d="M285 3215 c-17 -16 -25 -35 -25 -60 0 -87 114 -113 155 -35 43 83
-65 161 -130 95z"/>
<path d="M4720 3215 c-46 -49 -24 -126 40 -140 32 -7 84 15 94 40 34 91 -70
168 -134 100z"/>
<path d="M305 2038 c-52 -28 -62 -92 -20 -133 65 -66 173 12 130 95 -23 44
-70 60 -110 38z"/>
<path d="M4740 2037 c-76 -38 -48 -157 37 -157 85 0 117 117 42 155 -34 18
-47 18 -79 2z"/>
<path d="M888 1006 c-49 -37 -41 -114 14 -142 81 -42 161 72 95 134 -26 25
-82 29 -109 8z"/>
<path d="M4122 997 c-44 -46 -20 -122 44 -141 49 -15 113 48 98 97 -20 66 -99
90 -142 44z"/>
<path d="M1940 423 c-35 -13 -60 -47 -60 -80 0 -86 117 -116 156 -41 18 34 11
78 -14 101 -20 18 -61 28 -82 20z"/>
<path d="M3120 417 c-32 -16 -54 -61 -46 -93 24 -95 166 -79 166 19 0 59 -68
101 -120 74z"/>
</g>
</svg>
