<?xml version="1.0" standalone="no"?>
<!DOCTYPE svg PUBLIC "-//W3C//DTD SVG 20010904//EN"
 "http://www.w3.org/TR/2001/REC-SVG-20010904/DTD/svg10.dtd">
<svg version="1.0" xmlns="http://www.w3.org/2000/svg"
  viewBox="0 0 512.000000 512.000000"
 preserveAspectRatio="xMidYMid meet">

<g transform="translate(0.000000,512.000000) scale(0.100000,-0.100000)"
fill="#000000" stroke="none">
<path d="M2512 5104 c-12 -8 -33 -36 -46 -62 -39 -76 -91 -128 -164 -164 -70
-34 -118 -39 -269 -27 -47 4 -56 1 -80 -23 -35 -36 -35 -80 2 -178 23 -64 27
-84 21 -138 -8 -93 -45 -165 -121 -239 -60 -56 -65 -65 -65 -103 0 -52 38 -94
95 -104 58 -11 131 -52 179 -99 58 -58 87 -125 95 -222 11 -118 31 -145 108
-145 28 0 49 9 81 35 128 101 300 100 441 -3 29 -21 56 -32 78 -32 73 0 98 37
105 151 10 160 113 275 285 319 53 13 83 50 83 102 0 35 -7 46 -65 101 -87 85
-118 153 -119 262 0 66 4 91 27 142 34 79 34 105 -2 145 -28 31 -33 33 -83 29
-153 -12 -200 -7 -270 27 -73 36 -125 88 -164 164 -28 55 -57 78 -99 78 -17 0
-41 -7 -53 -16z m221 -403 c62 -31 163 -61 202 -61 19 0 20 -6 20 -97 0 -112
25 -208 74 -284 l29 -47 -54 -37 c-30 -21 -75 -60 -99 -87 -43 -48 -115 -176
-115 -206 0 -10 -6 -12 -22 -7 -78 24 -142 35 -203 35 -61 0 -125 -11 -202
-35 -17 -5 -23 -3 -23 7 0 32 -73 160 -121 212 -27 30 -71 68 -98 86 l-50 31
29 46 c52 82 75 166 75 279 l0 101 70 12 c90 15 200 69 267 130 l53 49 53 -49
c29 -26 81 -62 115 -78z"/>
<path d="M2460 4583 c-63 -23 -151 -113 -173 -177 -22 -63 -22 -139 0 -202 23
-67 110 -154 177 -177 195 -66 396 75 396 278 0 204 -205 346 -400 278z m171
-212 c21 -22 29 -39 29 -66 0 -51 -44 -95 -95 -95 -51 0 -95 44 -95 95 0 51
44 95 95 95 27 0 44 -8 66 -29z"/>
<path d="M3778 4725 c-34 -34 -38 -60 -38 -245 0 -87 3 -171 6 -189 16 -78
109 -109 166 -54 l28 27 0 215 0 215 -27 28 c-36 38 -99 39 -135 3z"/>
<path d="M3803 4010 c-12 -5 -30 -21 -40 -37 -16 -24 -18 -51 -18 -229 0 -189
1 -204 21 -230 38 -52 103 -56 150 -9 24 24 24 25 24 235 0 126 -4 219 -10
231 -12 22 -61 49 -87 48 -10 0 -28 -4 -40 -9z"/>
<path d="M1243 3720 c-12 -5 -30 -21 -40 -37 -16 -24 -18 -51 -18 -229 0 -189
1 -204 21 -230 38 -52 103 -56 150 -9 24 24 24 25 24 235 0 126 -4 219 -10
231 -12 22 -61 49 -87 48 -10 0 -28 -4 -40 -9z"/>
<path d="M2425 3461 c-119 -43 -214 -118 -267 -214 -85 -151 -88 -352 -9 -510
38 -75 38 -77 17 -81 -166 -31 -208 -53 -479 -244 -125 -88 -231 -163 -236
-166 -4 -3 -109 64 -231 150 -123 85 -241 164 -262 175 -156 80 -346 6 -408
-159 -41 -107 -10 -231 77 -313 42 -40 534 -410 600 -452 106 -67 252 -86 374
-47 35 11 145 67 244 124 l180 104 3 -266 c3 -317 -3 -348 -72 -409 -25 -22
-108 -68 -193 -108 -446 -209 -527 -252 -580 -308 -90 -95 -128 -198 -121
-326 12 -202 165 -364 372 -394 60 -9 85 -8 142 6 38 10 258 96 488 192 231
96 425 175 433 175 7 0 234 -83 505 -184 271 -101 517 -188 546 -195 240 -51
474 113 513 360 25 162 -49 333 -183 422 -29 19 -183 96 -343 172 -335 158
-364 175 -399 228 -35 54 -37 84 -34 379 l3 257 188 -109 c122 -70 211 -114
252 -125 84 -23 208 -16 287 15 70 27 644 454 701 520 112 132 75 345 -76 433
-87 51 -195 54 -285 8 -20 -10 -138 -89 -261 -175 -123 -86 -227 -153 -232
-150 -5 3 -111 78 -236 166 -243 172 -315 211 -427 235 -39 8 -72 16 -74 18
-2 2 8 21 22 42 66 96 92 311 51 433 -40 123 -113 219 -209 275 -112 66 -271
85 -381 46z m245 -202 c123 -55 185 -186 161 -336 -12 -79 -40 -132 -92 -176
-110 -95 -272 -86 -369 19 -51 56 -67 93 -76 176 -16 155 50 275 181 325 49
19 144 15 195 -8z m325 -813 c70 -18 104 -37 235 -129 411 -290 422 -297 452
-297 39 0 36 -2 322 197 138 96 261 179 273 183 64 25 136 -44 117 -111 -8
-29 -52 -66 -304 -256 -162 -122 -312 -229 -333 -238 -47 -19 -137 -19 -182
-1 -19 8 -133 71 -254 141 l-219 126 -4 70 c-3 63 -7 74 -31 95 -33 28 -91 32
-123 9 -44 -30 -45 -47 -42 -545 3 -466 3 -476 25 -530 32 -76 88 -147 153
-190 30 -21 196 -104 369 -186 352 -167 379 -186 407 -282 26 -88 6 -161 -64
-234 -43 -46 -116 -72 -178 -65 -23 2 -216 69 -428 148 l-385 144 149 5 c138
5 150 7 173 28 33 31 41 76 21 117 -23 50 -46 55 -250 55 l-186 0 -576 -240
c-318 -133 -596 -243 -619 -247 -126 -17 -252 91 -253 217 0 68 16 114 58 159
31 34 90 66 371 201 184 88 352 172 373 187 52 35 91 87 131 170 l32 68 3 473
c3 415 1 476 -13 506 -30 63 -104 75 -154 25 -28 -28 -31 -36 -31 -94 l0 -63
-218 -126 c-121 -69 -235 -133 -255 -141 -43 -18 -131 -20 -177 -3 -53 18
-629 454 -640 484 -15 40 -12 60 15 92 27 32 67 45 100 32 11 -4 134 -87 272
-183 289 -201 282 -197 321 -197 33 0 18 -10 332 212 250 176 280 194 350 214
66 18 796 19 865 0z"/>
<path d="M3804 3240 c-54 -21 -72 -105 -34 -153 27 -34 78 -44 118 -23 37 19
52 44 52 86 0 42 -15 67 -50 85 -32 17 -54 18 -86 5z"/>
<path d="M1244 2950 c-56 -22 -73 -112 -30 -155 32 -32 69 -40 107 -25 39 16
59 46 59 88 0 44 -14 68 -50 87 -32 17 -54 18 -86 5z"/>
</g>
</svg>
