<?xml version="1.0" standalone="no"?>
<!DOCTYPE svg PUBLIC "-//W3C//DTD SVG 20010904//EN"
 "http://www.w3.org/TR/2001/REC-SVG-20010904/DTD/svg10.dtd">
<svg version="1.0" xmlns="http://www.w3.org/2000/svg"
  viewBox="0 0 512.000000 512.000000"
 preserveAspectRatio="xMidYMid meet">

<g transform="translate(0.000000,512.000000) scale(0.100000,-0.100000)"
fill="#000000" stroke="none">
<path d="M3048 5021 c-31 -10 -72 -28 -91 -40 -52 -32 -116 -106 -145 -169
-24 -50 -27 -70 -27 -157 0 -93 2 -105 33 -167 139 -283 531 -287 683 -6 33
61 34 67 34 173 0 102 -2 114 -29 168 -37 71 -118 150 -192 184 -75 34 -187
41 -266 14z m213 -168 c35 -19 64 -43 84 -71 27 -40 30 -51 30 -126 0 -75 -3
-87 -29 -125 -83 -119 -247 -132 -344 -27 -48 53 -66 102 -60 172 7 77 49 140
117 176 71 37 129 37 202 1z"/>
<path d="M3870 4327 c-19 -7 -101 -53 -182 -101 l-148 -89 -217 58 c-183 48
-227 56 -276 52 -117 -11 -206 -94 -231 -217 -6 -33 -26 -48 -288 -224 -235
-159 -285 -197 -310 -235 -18 -30 -40 -50 -61 -57 -18 -6 -99 -52 -181 -101
l-149 -90 -106 29 c-310 84 -355 93 -414 79 -100 -22 -175 -96 -199 -197 l-12
-50 -279 -189 c-290 -197 -319 -223 -347 -309 -44 -135 51 -295 195 -327 93
-21 136 -5 325 121 l165 110 3 -32 c2 -18 12 -118 22 -223 l18 -190 -194 -363
c-107 -199 -199 -383 -205 -408 -23 -91 8 -183 85 -251 52 -46 101 -63 179
-63 67 0 146 38 188 90 29 37 443 810 461 861 12 35 35 38 48 7 5 -13 23 -126
40 -253 38 -278 48 -318 97 -374 153 -180 453 -75 453 159 0 31 -23 213 -50
405 -54 378 -63 409 -127 466 -43 37 -42 37 -295 123 -222 76 -202 58 -213
198 l-7 87 93 -25 c155 -41 161 -39 499 164 141 84 170 106 198 148 22 33 45
54 70 63 20 8 106 61 190 119 85 57 155 102 157 100 2 -2 13 -101 25 -221 l21
-218 -174 -327 c-96 -180 -187 -352 -202 -382 -72 -144 0 -321 149 -365 63
-19 99 -19 163 0 94 28 116 60 350 500 117 220 219 417 228 438 13 31 19 36
33 28 14 -7 24 -58 55 -278 41 -284 53 -327 107 -381 121 -122 321 -101 406
43 50 87 50 98 -6 491 -55 388 -60 411 -97 466 -40 59 -91 85 -316 160 -117
39 -213 72 -214 72 -4 3 -23 209 -19 213 2 2 37 -5 77 -17 80 -22 172 -26 216
-9 61 23 440 256 475 292 116 120 77 330 -77 409 -49 26 -147 33 -195 15z
m123 -158 c59 -30 76 -107 35 -153 -13 -13 -111 -77 -219 -140 -143 -85 -204
-116 -228 -116 -18 0 -94 16 -168 36 -114 30 -139 34 -163 24 -51 -21 -54 -39
-36 -236 21 -224 24 -248 40 -270 8 -10 116 -52 266 -103 204 -69 257 -91 271
-111 14 -19 31 -117 69 -381 28 -196 47 -365 44 -375 -12 -33 -46 -64 -79 -70
-37 -7 -89 16 -105 45 -5 11 -30 156 -55 322 -35 239 -48 306 -62 320 -18 17
-224 89 -255 89 -9 0 -28 -10 -43 -22 -22 -20 -26 -32 -29 -93 -3 -70 -3 -71
-214 -465 -116 -217 -223 -405 -237 -417 -31 -27 -81 -30 -114 -7 -29 21 -52
74 -44 104 4 13 96 191 205 396 146 274 198 380 198 405 0 19 -22 263 -50 542
-32 330 -46 517 -40 531 12 32 58 66 89 66 14 0 127 -27 251 -60 124 -33 231
-60 238 -60 7 0 92 47 189 105 97 58 187 105 200 105 13 0 34 -5 46 -11z
m-1159 -411 c3 -29 8 -80 12 -113 l6 -60 -191 -127 c-161 -109 -196 -128 -228
-128 -50 0 -80 22 -94 69 -20 66 -3 83 248 255 126 85 231 155 234 156 4 0 9
-24 13 -52z m-636 -442 c7 -19 35 -55 63 -80 l49 -45 -200 -120 c-111 -67
-211 -123 -224 -127 -13 -3 -82 11 -155 30 -152 41 -193 44 -221 16 -25 -25
-25 -62 -2 -297 14 -136 21 -176 36 -192 12 -13 108 -50 261 -101 175 -58 249
-87 265 -105 20 -22 28 -61 71 -357 58 -401 59 -410 20 -449 -53 -52 -141 -31
-161 39 -6 20 -29 163 -50 317 -36 247 -43 282 -63 301 -33 33 -239 96 -271
84 -39 -15 -56 -49 -54 -111 3 -53 -2 -63 -210 -454 -117 -220 -224 -410 -238
-422 -27 -25 -81 -31 -115 -13 -23 13 -49 61 -49 90 0 12 93 195 206 407 l206
386 -51 531 c-28 292 -51 539 -51 548 0 26 47 76 78 83 18 4 106 -15 254 -55
125 -33 237 -60 250 -60 13 0 93 42 178 94 85 52 157 95 160 95 4 1 12 -15 18
-33z m-1072 -418 c5 -57 9 -108 9 -115 0 -7 -88 -71 -195 -144 -179 -120 -197
-130 -230 -125 -73 11 -115 103 -72 155 16 20 459 329 473 330 4 1 11 -45 15
-101z"/>
<path d="M1365 4216 c-113 -28 -207 -101 -255 -196 -138 -273 62 -577 366
-558 288 19 448 345 291 592 -80 126 -260 199 -402 162z m186 -177 c114 -58
153 -203 83 -315 -53 -87 -177 -128 -267 -91 -109 46 -165 161 -132 273 39
134 190 198 316 133z"/>
<path d="M3603 1956 l-28 -24 -3 -266 -3 -265 -440 -3 -441 -3 -19 -24 c-18
-22 -19 -42 -19 -287 l0 -264 -430 0 c-293 0 -437 -4 -453 -11 -43 -20 -47
-45 -47 -314 l0 -255 -434 0 c-423 0 -434 0 -460 -21 -37 -29 -37 -89 0 -118
26 -21 36 -21 516 -21 l489 0 24 25 25 24 0 266 0 265 438 0 c328 1 441 4 453
13 36 28 39 52 39 311 l0 256 434 0 c422 0 434 1 459 21 l27 20 2 267 3 267
443 5 444 5 19 24 c21 26 24 68 6 92 -29 38 -44 39 -536 39 l-480 0 -28 -24z"/>
</g>
</svg>
