<?xml version="1.0" standalone="no"?>
<!DOCTYPE svg PUBLIC "-//W3C//DTD SVG 20010904//EN"
 "http://www.w3.org/TR/2001/REC-SVG-20010904/DTD/svg10.dtd">
<svg version="1.0" xmlns="http://www.w3.org/2000/svg"
 width="512.000000pt" height="512.000000pt" viewBox="0 0 512.000000 512.000000"
 preserveAspectRatio="xMidYMid meet">

<g transform="translate(0.000000,512.000000) scale(0.100000,-0.100000)"
fill="#000000" stroke="none">
<path d="M2130 5109 c-371 -46 -675 -165 -970 -382 -116 -85 -323 -291 -409
-407 -444 -599 -514 -1396 -182 -2059 94 -186 243 -395 365 -510 l36 -35 0
-858 0 -858 1215 0 1215 0 0 325 0 325 342 2 342 3 54 525 c29 289 56 528 60
531 4 4 131 37 282 74 151 37 276 69 278 70 1 1 -52 161 -119 356 -199 584
-256 789 -343 1220 -53 264 -93 393 -175 565 -280 584 -824 991 -1471 1099
-113 19 -415 28 -520 14z m388 -300 c196 -21 357 -68 542 -155 349 -166 626
-442 790 -786 71 -150 103 -256 156 -513 82 -407 151 -660 290 -1065 36 -107
67 -201 68 -209 1 -11 -59 -30 -224 -71 l-225 -56 -52 -500 c-28 -274 -52
-500 -52 -501 -1 -2 -161 -3 -356 -3 l-355 0 0 -325 0 -325 -915 0 -915 0 0
770 0 770 -113 113 c-750 749 -634 1976 243 2577 183 125 409 219 626 259 172
32 326 39 492 20z"/>
<path d="M1622 4090 c-119 -31 -225 -93 -318 -185 -90 -89 -142 -171 -181
-284 -35 -101 -43 -274 -18 -386 32 -145 131 -303 248 -395 56 -45 57 -45 57
-100 1 -220 157 -438 364 -510 189 -67 404 -28 545 97 l44 39 71 -53 c84 -63
167 -98 264 -111 161 -23 325 28 445 138 109 99 170 226 183 377 l7 82 58 46
c72 57 141 147 190 250 171 356 11 790 -353 954 -187 85 -431 80 -613 -11 -67
-34 -160 -105 -205 -155 l-42 -48 -37 41 c-91 103 -216 178 -357 214 -102 26
-252 26 -352 0z m299 -296 c140 -41 245 -152 284 -301 22 -83 22 -746 0 -819
-31 -105 -128 -177 -240 -176 -33 0 -76 6 -96 15 -89 37 -159 138 -159 229 0
26 11 83 25 128 15 44 24 84 21 89 -3 5 -35 21 -71 35 -131 52 -204 116 -257
224 -31 63 -33 73 -33 177 0 103 2 114 32 177 88 186 296 280 494 222z m1182
-17 c65 -30 155 -110 191 -171 69 -118 74 -266 12 -391 -49 -99 -115 -159
-239 -215 l-95 -43 23 -68 c35 -101 40 -148 21 -211 -20 -69 -64 -120 -131
-153 -63 -31 -149 -36 -206 -12 -54 22 -110 77 -135 132 -24 50 -24 53 -24
431 0 433 4 465 78 563 58 77 114 118 207 153 75 28 219 21 298 -15z"/>
</g>
</svg>
