<?xml version="1.0" standalone="no"?>
<!DOCTYPE svg PUBLIC "-//W3C//DTD SVG 20010904//EN"
 "http://www.w3.org/TR/2001/REC-SVG-20010904/DTD/svg10.dtd">
<svg version="1.0" xmlns="http://www.w3.org/2000/svg"
 width="512.000000pt" height="512.000000pt" viewBox="0 0 512.000000 512.000000"
 preserveAspectRatio="xMidYMid meet">

<g transform="translate(0.000000,512.000000) scale(0.100000,-0.100000)"
fill="#000000" stroke="none">
<path d="M1919 5101 l-24 -19 -3 -270 -3 -270 -26 -26 -26 -26 -562 0 c-448 0
-579 -3 -638 -14 -219 -42 -404 -184 -498 -381 -69 -145 -71 -158 -76 -573 -3
-205 -2 -388 1 -408 13 -68 82 -98 126 -54 19 19 20 33 20 358 0 185 5 376 10
425 26 225 156 386 380 470 53 21 77 22 666 27 l611 5 49 30 c30 19 60 49 79
79 l30 49 3 288 3 287 -27 21 c-33 26 -65 27 -95 2z"/>
<path d="M3106 5099 l-27 -21 3 -287 3 -288 30 -49 c19 -30 49 -60 79 -79 l49
-30 611 -5 611 -5 66 -26 c130 -50 213 -115 283 -221 84 -126 96 -210 96 -670
0 -325 1 -339 20 -358 44 -44 113 -14 126 54 3 20 4 203 1 408 -5 411 -7 428
-72 565 -67 143 -179 258 -319 327 -146 72 -125 70 -786 74 -565 3 -596 4
-620 22 l-25 19 -5 276 c-5 276 -5 277 -29 296 -30 25 -62 24 -95 -2z"/>
<path d="M3813 4108 c-25 -12 -43 -56 -43 -104 0 -33 -1 -34 -40 -34 -77 0
-123 -46 -101 -103 13 -34 39 -47 94 -47 l45 0 4 -55 c6 -66 28 -95 73 -95 51
0 69 20 75 87 l5 58 40 3 c70 4 86 11 99 44 26 62 -14 108 -95 108 l-49 0 0
54 c0 47 -4 57 -26 75 -29 23 -48 25 -81 9z"/>
<path d="M2330 4004 c-310 -56 -604 -233 -794 -478 -253 -324 -340 -734 -240
-1130 105 -417 419 -761 832 -910 264 -95 600 -95 864 0 373 134 676 439 803
808 110 322 85 708 -65 1007 -55 109 -155 245 -250 339 -193 194 -431 318
-696 364 -109 19 -349 19 -454 0z m523 -167 c467 -124 808 -527 857 -1014 50
-485 -238 -969 -690 -1164 -352 -152 -749 -121 -1078 83 -99 62 -257 212 -325
309 -139 198 -210 424 -210 669 0 134 15 231 54 351 129 398 455 690 868 780
131 28 389 21 524 -14z"/>
<path d="M2280 3684 c-599 -177 -898 -855 -621 -1407 54 -108 82 -130 135
-104 17 8 177 120 356 249 277 199 326 237 331 263 11 53 10 927 -1 967 -19
66 -62 72 -200 32z m50 -546 l-1 -403 -265 -190 c-146 -104 -269 -191 -273
-193 -14 -5 -70 181 -81 272 -40 326 133 669 422 834 64 36 167 80 191 82 4 0
7 -181 7 -402z"/>
<path d="M2661 3691 c-11 -11 -22 -39 -26 -63 -3 -24 -5 -249 -3 -501 l3 -459
24 -19 c30 -24 72 -24 102 0 l24 19 3 436 c2 288 6 436 13 436 6 0 44 -14 84
-31 411 -171 623 -625 490 -1047 -40 -126 -28 -126 -200 -1 -167 120 -196 131
-234 83 -21 -27 -26 -50 -15 -78 6 -17 363 -277 406 -297 47 -21 77 5 129 108
158 314 135 694 -60 990 -136 206 -331 349 -570 419 -101 29 -144 31 -170 5z"/>
<path d="M2215 2286 c-170 -123 -317 -235 -325 -249 -11 -20 -12 -30 -2 -51
32 -70 255 -197 427 -242 86 -23 120 -27 245 -27 125 0 159 4 245 27 159 42
344 140 409 217 28 33 29 66 4 96 -5 7 -149 111 -318 233 -256 182 -315 220
-342 220 -27 -1 -92 -43 -343 -224z m581 -107 c123 -89 226 -165 229 -169 6
-10 -63 -51 -142 -83 -134 -55 -294 -76 -424 -58 -154 22 -387 116 -360 145
26 26 447 324 459 325 8 1 115 -72 238 -160z"/>
<path d="M720 3670 c-11 -11 -20 -33 -20 -50 0 -17 69 -562 154 -1213 85 -650
157 -1218 160 -1262 4 -50 -6 -269 -28 -580 -28 -425 -31 -504 -20 -526 23
-46 77 -53 113 -15 23 24 24 40 57 533 22 324 32 539 28 593 -5 80 -308 2424
-320 2482 -11 55 -85 77 -124 38z"/>
<path d="M4303 3675 c-12 -8 -24 -27 -27 -43 -11 -50 -314 -2396 -321 -2479
-5 -63 -3 -88 9 -111 24 -47 66 -55 108 -22 23 17 26 29 32 112 4 51 77 625
162 1276 85 650 154 1196 154 1212 0 59 -67 90 -117 55z"/>
<path d="M1383 1534 c-20 -20 -24 -31 -19 -57 8 -40 23 -55 63 -63 67 -13 110
77 60 124 -31 30 -72 28 -104 -4z"/>
<path d="M1910 1232 c-18 -14 -24 -32 -28 -75 l-4 -57 -50 0 c-57 0 -98 -31
-98 -75 0 -44 41 -75 98 -75 l50 0 4 -57 c6 -63 30 -93 77 -93 44 0 71 37 71
98 l0 52 53 0 c63 0 97 27 97 76 0 47 -35 74 -98 74 l-52 0 0 53 c0 43 -5 58
-23 75 -28 27 -67 28 -97 4z"/>
<path d="M4012 793 c-7 -3 -19 -17 -26 -31 -12 -23 -11 -76 9 -370 22 -328 24
-344 46 -368 36 -38 90 -31 113 15 11 22 10 79 -10 371 l-23 345 -26 22 c-25
22 -55 28 -83 16z"/>
</g>
</svg>
