<?xml version="1.0" standalone="no"?>
<!DOCTYPE svg PUBLIC "-//W3C//DTD SVG 20010904//EN"
 "http://www.w3.org/TR/2001/REC-SVG-20010904/DTD/svg10.dtd">
<svg version="1.0" xmlns="http://www.w3.org/2000/svg"
 viewBox="0 0 512.000000 512.000000"
 preserveAspectRatio="xMidYMid meet">

<g transform="translate(0.000000,512.000000) scale(0.100000,-0.100000)"
fill="#000000" stroke="none">
<path d="M2175 4944 c-408 -55 -755 -230 -1042 -526 -189 -197 -319 -411 -403
-668 -80 -243 -90 -343 -90 -910 0 -557 9 -648 90 -891 51 -155 111 -271 240
-469 166 -254 232 -402 280 -625 19 -84 23 -144 27 -374 5 -271 6 -275 29
-298 23 -23 23 -23 294 -23 l271 0 24 25 c33 32 33 78 0 110 -24 25 -24 25
-240 25 l-215 0 0 163 c0 255 -22 405 -90 608 -51 155 -111 271 -240 469 -167
255 -231 400 -282 630 -22 103 -23 118 -23 650 0 528 1 549 23 657 85 422 311
770 657 1015 186 132 397 217 665 269 38 8 142 13 250 13 151 0 205 -4 295
-22 653 -130 1144 -618 1275 -1268 14 -68 22 -157 26 -289 l6 -190 145 -440
c80 -242 148 -445 150 -452 3 -7 -51 -40 -136 -82 -77 -39 -145 -79 -151 -90
-6 -13 -10 -133 -10 -327 0 -211 -4 -319 -12 -348 -16 -55 -99 -138 -154 -154
-23 -7 -92 -12 -153 -12 -105 0 -113 -1 -136 -25 l-25 -24 0 -376 0 -375 -295
0 -296 0 -24 -25 c-33 -32 -33 -78 0 -110 l24 -25 351 0 351 0 24 25 25 24 0
374 0 374 89 5 c162 10 279 86 349 226 l37 76 5 304 5 304 150 76 c124 64 152
82 160 105 8 24 -14 99 -153 515 l-162 487 0 120 c0 292 -63 563 -186 808
-338 674 -1063 1061 -1799 961z"/>
<path d="M2245 4634 c-194 -30 -349 -76 -486 -144 -397 -200 -676 -564 -771
-1003 -29 -137 -32 -418 -5 -547 115 -551 495 -970 1018 -1121 l78 -23 3 -700
3 -701 23 -45 c35 -72 75 -114 144 -151 58 -31 70 -34 148 -34 78 0 90 3 148
34 70 38 100 69 140 145 l27 51 3 700 3 700 110 34 c375 116 691 389 864 746
54 112 87 210 116 345 30 138 33 408 6 543 -90 447 -374 824 -773 1025 -195
98 -376 142 -609 147 -88 2 -173 1 -190 -1z m425 -183 c329 -75 610 -267 797
-546 132 -196 213 -465 213 -705 0 -184 -53 -408 -136 -572 -120 -238 -335
-453 -572 -572 -108 -54 -262 -103 -383 -120 -408 -60 -797 69 -1090 363 -186
185 -300 394 -355 651 -26 119 -26 381 0 500 114 530 530 930 1056 1014 125
20 352 14 470 -13z m-112 -3358 c-3 -661 -3 -672 -24 -699 -39 -53 -71 -69
-134 -69 -63 0 -95 16 -134 69 -21 27 -21 38 -24 699 l-2 672 160 0 160 0 -2
-672z"/>
<path d="M2345 4375 c-25 -24 -25 -26 -25 -215 0 -189 0 -191 25 -215 15 -16
36 -25 55 -25 19 0 40 9 55 25 25 24 25 26 25 215 0 189 0 191 -25 215 -15 16
-36 25 -55 25 -19 0 -40 -9 -55 -25z"/>
<path d="M2070 4185 c-216 -76 -391 -205 -514 -378 -88 -124 -165 -309 -181
-437 -11 -92 -10 -90 -71 -90 -66 0 -104 -29 -104 -80 0 -51 38 -80 104 -80
61 0 60 2 71 -90 10 -78 50 -202 96 -294 98 -198 259 -361 454 -460 81 -41
208 -86 242 -86 33 0 73 43 73 78 0 46 -28 69 -125 102 -303 102 -534 376
-583 693 l-9 57 54 0 c65 0 103 29 103 80 0 51 -38 80 -103 80 l-54 0 10 63
c26 174 114 343 247 477 101 101 208 167 335 210 50 17 98 40 108 51 25 30 22
75 -8 104 -30 31 -60 31 -145 0z"/>
<path d="M2585 4185 c-30 -29 -33 -74 -7 -103 9 -11 57 -34 105 -50 304 -103
536 -378 585 -694 l9 -58 -54 0 c-65 0 -103 -29 -103 -80 0 -51 38 -80 103
-80 l54 0 -9 -57 c-49 -317 -283 -594 -585 -694 -95 -32 -123 -55 -123 -101 0
-36 40 -78 74 -78 13 0 64 14 113 31 347 122 611 431 673 789 21 120 14 110
76 110 66 0 104 29 104 80 0 51 -38 80 -104 80 -61 0 -60 -2 -71 90 -16 122
-94 315 -173 425 -130 182 -297 309 -499 382 -112 39 -136 41 -168 8z"/>
<path d="M2262 3825 c-113 -25 -226 -87 -313 -174 -251 -252 -251 -651 0 -900
252 -251 647 -254 895 -6 122 121 184 256 193 419 7 119 -14 216 -69 326 -128
256 -423 396 -706 335z m253 -160 c238 -62 393 -291 358 -531 -30 -212 -196
-377 -409 -407 -329 -48 -612 266 -529 586 67 258 329 417 580 352z"/>
<path d="M2320 3427 c-49 -16 -133 -102 -148 -153 -28 -94 -8 -169 63 -239 51
-52 102 -75 165 -75 63 0 114 23 165 75 98 97 101 222 8 325 -65 72 -158 97
-253 67z m135 -172 c50 -49 15 -135 -55 -135 -41 0 -80 39 -80 80 0 41 39 80
80 80 19 0 40 -9 55 -25z"/>
<path d="M2345 2455 c-25 -24 -25 -26 -25 -215 0 -189 0 -191 25 -215 15 -16
36 -25 55 -25 19 0 40 9 55 25 25 24 25 26 25 215 0 189 0 191 -25 215 -15 16
-36 25 -55 25 -19 0 -40 -9 -55 -25z"/>
</g>
</svg>
