<?xml version="1.0" standalone="no"?>
<!DOCTYPE svg PUBLIC "-//W3C//DTD SVG 20010904//EN"
 "http://www.w3.org/TR/2001/REC-SVG-20010904/DTD/svg10.dtd">
<svg version="1.0" xmlns="http://www.w3.org/2000/svg"
 viewBox="0 0 512.000000 512.000000"
 preserveAspectRatio="xMidYMid meet">

<g transform="translate(0.000000,512.000000) scale(0.100000,-0.100000)"
fill="#000000" stroke="none">
<path d="M2139 5104 c-386 -69 -687 -371 -759 -759 -8 -40 -10 -208 -8 -505 3
-444 3 -445 26 -488 37 -69 99 -130 167 -162 l62 -30 7 -57 c23 -195 153 -434
307 -565 65 -55 156 -114 227 -147 l52 -24 0 -73 0 -72 -82 -7 c-120 -10 -258
-48 -364 -100 -266 -129 -456 -356 -540 -645 -37 -128 -46 -285 -42 -765 3
-419 4 -431 26 -486 32 -80 90 -142 170 -181 l67 -33 1105 0 1105 0 67 33 c80
39 138 101 170 181 22 55 23 67 26 486 4 480 -5 637 -42 765 -84 290 -273 516
-540 645 -106 52 -245 90 -364 100 l-82 8 0 71 0 71 93 48 c173 89 308 226
399 403 51 99 84 199 94 287 l7 57 63 30 c77 37 145 110 173 186 20 52 21 76
21 478 0 401 -1 428 -21 492 -59 194 -210 349 -394 404 -22 6 -46 13 -52 15
-9 3 -6 15 11 40 52 77 41 179 -28 250 -25 27 -56 47 -81 54 -62 17 -948 13
-1046 -5z m1012 -175 c10 -19 4 -28 -52 -85 l-63 -64 -124 0 c-123 0 -124 0
-153 -29 -31 -31 -36 -59 -17 -94 23 -44 33 -46 248 -47 222 0 278 -8 370 -55
69 -35 143 -113 182 -192 32 -66 33 -73 36 -213 l4 -145 -74 0 c-51 0 -87 -6
-116 -19 l-42 -19 -48 46 c-69 64 -114 84 -244 106 -166 30 -261 66 -386 150
-47 31 -63 36 -112 36 -49 0 -65 -5 -112 -37 -124 -82 -256 -131 -426 -157
-88 -13 -139 -38 -204 -98 l-48 -46 -42 19 c-29 13 -65 19 -115 19 l-73 0 0
141 c0 161 18 253 74 369 102 215 306 372 546 420 47 10 188 13 522 14 456 1
457 1 469 -20z m-540 -825 c114 -78 266 -133 422 -154 45 -7 92 -17 106 -25
55 -28 95 -91 104 -165 15 -118 152 -120 170 -3 13 76 92 109 142 58 25 -24
25 -27 25 -198 0 -164 -1 -176 -22 -207 -33 -48 -67 -69 -126 -79 -81 -13 -98
-34 -106 -136 -33 -410 -358 -716 -761 -716 -106 -1 -146 5 -235 33 -302 95
-510 360 -536 683 -8 102 -25 123 -106 136 -59 10 -93 31 -125 79 -22 31 -23
43 -23 207 0 171 0 174 25 198 50 51 129 18 142 -58 18 -117 155 -115 170 3
13 105 81 174 181 185 157 17 382 99 467 170 17 13 31 24 31 25 1 0 26 -16 55
-36z m-51 -1798 c52 0 112 4 133 8 l37 7 0 -111 c0 -125 -11 -162 -59 -203
-47 -39 -102 -53 -151 -38 -50 15 -99 56 -116 98 -9 21 -14 72 -14 143 l0 111
38 -7 c20 -4 80 -8 132 -8z m-312 -306 c11 -27 41 -71 66 -98 136 -145 356
-145 492 0 25 27 55 71 66 99 l22 51 75 -7 c327 -31 603 -233 722 -530 58
-146 60 -166 57 -728 l-3 -512 -24 -34 c-38 -53 -89 -71 -208 -71 l-103 0 0
445 c0 430 -1 446 -20 465 -43 43 -110 34 -137 -20 -10 -19 -13 -132 -13 -457
l0 -433 -680 0 -680 0 0 433 c0 325 -3 438 -13 457 -27 54 -94 63 -137 20 -19
-19 -20 -35 -20 -465 l0 -445 -102 0 c-120 0 -171 18 -209 71 l-24 34 0 540
c0 538 0 540 23 615 49 156 149 312 258 406 149 127 349 207 535 213 34 1 37
-2 57 -49z"/>
<path d="M2349 2975 c-66 -36 -53 -118 29 -181 109 -83 255 -83 364 0 59 45
82 92 67 135 -23 66 -99 74 -157 16 -13 -14 -42 -30 -62 -36 -33 -10 -44 -9
-84 11 -25 12 -46 26 -46 31 0 10 -60 39 -77 39 -4 -1 -20 -7 -34 -15z"/>
<path d="M344 4481 c-256 -205 -389 -657 -329 -1114 28 -216 106 -417 218
-562 109 -142 196 -187 252 -130 45 44 35 79 -43 154 -132 127 -202 266 -249
491 -26 127 -24 421 5 551 44 201 114 340 235 460 87 88 97 120 52 164 -37 38
-82 33 -141 -14z"/>
<path d="M4635 4495 c-17 -16 -25 -35 -25 -59 0 -29 8 -41 49 -78 201 -175
306 -486 287 -848 -15 -295 -97 -509 -258 -672 -86 -86 -96 -113 -57 -162 16
-20 29 -26 59 -26 79 0 211 143 300 325 193 394 169 971 -55 1320 -121 189
-235 266 -300 200z"/>
<path d="M4330 4263 c-35 -13 -60 -47 -60 -81 0 -30 10 -44 69 -101 132 -128
188 -296 178 -535 -9 -214 -54 -335 -170 -449 -48 -48 -70 -78 -74 -100 -9
-60 55 -109 114 -86 67 25 188 177 236 296 53 130 62 185 61 378 0 153 -3 192
-22 260 -46 169 -150 332 -251 397 -46 28 -54 31 -81 21z"/>
<path d="M693 4231 c-94 -68 -180 -205 -229 -366 -26 -84 -28 -103 -28 -275
-1 -199 7 -250 61 -383 50 -125 184 -287 249 -303 30 -8 81 12 94 37 25 46 12
75 -63 151 -120 121 -165 238 -174 454 -10 239 45 405 177 535 78 76 87 105
49 153 -29 37 -83 36 -136 -3z"/>
<path d="M1060 3994 c-41 -28 -100 -86 -129 -129 -88 -126 -105 -341 -40 -492
45 -105 156 -213 219 -213 43 0 80 39 80 85 0 30 -8 43 -59 91 -85 79 -105
126 -105 244 -1 123 22 177 105 254 50 45 59 59 59 88 -1 71 -72 110 -130 72z"/>
<path d="M3955 3985 c-18 -17 -25 -35 -25 -61 0 -31 8 -43 59 -90 82 -76 105
-131 105 -249 0 -117 -23 -172 -105 -249 -53 -50 -59 -60 -59 -95 0 -47 35
-81 82 -81 61 0 173 109 217 213 65 151 48 366 -40 492 -29 43 -88 101 -129
129 -35 23 -77 20 -105 -9z"/>
</g>
</svg>
