<?xml version="1.0" standalone="no"?>
<!DOCTYPE svg PUBLIC "-//W3C//DTD SVG 20010904//EN"
 "http://www.w3.org/TR/2001/REC-SVG-20010904/DTD/svg10.dtd">
<svg version="1.0" xmlns="http://www.w3.org/2000/svg"
 viewBox="0 0 512.000000 512.000000"
 preserveAspectRatio="xMidYMid meet">

<g transform="translate(0.000000,512.000000) scale(0.100000,-0.100000)"
fill="#000000" stroke="none">
<path d="M2395 4816 c-370 -72 -657 -339 -757 -703 -31 -113 -31 -353 1 -468
25 -95 105 -260 158 -329 21 -27 44 -57 52 -68 13 -18 3 -18 -365 -16 l-378 3
-101 505 c-56 278 -109 527 -118 554 -66 192 -267 322 -471 303 -220 -21 -396
-198 -413 -417 -7 -89 127 -1146 158 -1245 93 -300 338 -523 644 -586 71 -15
135 -19 298 -19 l207 0 0 -960 c0 -943 0 -962 20 -1000 13 -26 34 -47 60 -60
39 -20 56 -20 1170 -20 1114 0 1131 0 1170 20 26 13 47 34 60 60 20 38 20 57
20 1000 l0 960 204 0 c224 0 324 13 436 57 244 96 432 298 509 548 31 99 165
1156 158 1245 -17 219 -193 396 -413 417 -204 19 -405 -110 -471 -303 -9 -27
-62 -276 -118 -554 l-101 -505 -378 -3 c-368 -2 -378 -2 -365 16 8 11 31 41
52 68 54 70 132 235 159 334 33 123 32 338 0 460 -93 341 -354 604 -687 691
-103 27 -301 34 -400 15z m300 -301 c39 -8 108 -33 155 -56 169 -83 307 -260
345 -444 31 -146 12 -285 -56 -425 -59 -119 -170 -230 -289 -289 -193 -94
-387 -94 -580 0 -119 59 -230 170 -289 289 -94 193 -94 387 0 580 82 167 259
306 439 344 86 19 189 19 275 1z m-2169 -234 c23 -11 50 -33 62 -52 14 -24 51
-188 127 -569 58 -294 110 -549 116 -566 14 -44 74 -111 123 -137 l41 -22
1565 0 1565 0 41 22 c49 26 109 93 123 137 6 17 58 272 116 566 76 381 113
545 127 569 23 36 86 70 131 71 67 0 140 -59 152 -124 9 -46 -122 -1083 -146
-1160 -52 -166 -180 -297 -349 -357 -61 -22 -83 -24 -385 -29 -360 -6 -368 -7
-405 -80 -20 -38 -20 -57 -20 -1000 l0 -960 -950 0 -950 0 0 960 c0 943 0 962
-20 1000 -37 73 -45 74 -405 80 -302 5 -324 7 -385 29 -169 60 -297 191 -349
357 -24 77 -155 1114 -146 1160 7 41 49 92 90 110 42 18 83 17 131 -5z"/>
<path d="M2217 2390 c-90 -23 -185 -90 -236 -167 -40 -60 -71 -160 -71 -228 0
-67 31 -168 69 -225 16 -25 137 -151 268 -282 333 -331 293 -331 626 0 131
131 252 257 268 282 38 57 69 158 69 225 0 68 -31 168 -71 228 -96 145 -294
213 -459 157 -35 -12 -76 -30 -90 -40 -26 -18 -26 -18 -98 18 -63 31 -84 36
-155 38 -45 2 -99 -1 -120 -6z m146 -301 c12 -7 45 -33 73 -59 28 -27 67 -53
87 -58 54 -15 102 2 161 58 61 57 85 70 126 70 48 0 100 -56 100 -106 0 -36
-10 -48 -175 -213 l-175 -176 -175 176 c-165 165 -175 177 -175 213 0 30 7 45
34 72 36 36 78 44 119 23z"/>
</g>
</svg>
