<?xml version="1.0" standalone="no"?>
<!DOCTYPE svg PUBLIC "-//W3C//DTD SVG 20010904//EN"
 "http://www.w3.org/TR/2001/REC-SVG-20010904/DTD/svg10.dtd">
<svg version="1.0" xmlns="http://www.w3.org/2000/svg"
 viewBox="0 0 512.000000 512.000000"
 preserveAspectRatio="xMidYMid meet">

<g transform="translate(0.000000,512.000000) scale(0.100000,-0.100000)"
fill="#000000" stroke="none">
<path d="M2528 5104 c-35 -18 -48 -43 -48 -88 0 -33 -2 -35 -37 -41 -228 -35
-364 -85 -526 -192 l-68 -45 -39 36 c-65 59 -142 45 -171 -32 -12 -32 2 -77
37 -114 l26 -27 -59 -78 c-103 -137 -180 -310 -213 -480 -13 -63 -13 -63 -47
-63 -88 0 -137 -74 -98 -149 15 -29 58 -51 101 -51 18 0 24 -6 24 -23 0 -47
33 -214 57 -287 29 -88 90 -211 145 -293 l39 -58 -30 -35 c-93 -106 42 -229
145 -133 l21 20 89 -59 c153 -101 290 -148 466 -159 l97 -6 6 -38 c14 -79 79
-118 143 -85 41 21 52 44 52 106 0 39 4 52 18 57 173 60 306 141 405 247 148
157 230 331 258 541 15 116 6 348 -17 435 -117 446 -581 695 -1007 540 -375
-137 -584 -544 -477 -928 85 -305 329 -497 610 -479 251 17 449 179 516 422
19 71 27 229 15 308 -41 280 -323 437 -574 320 -153 -72 -256 -260 -227 -414
12 -62 30 -96 72 -135 47 -45 93 -65 160 -71 51 -5 66 -2 122 26 67 33 106 77
132 148 24 70 15 119 -30 155 -57 46 -156 -5 -156 -80 0 -30 -35 -55 -65 -48
-40 10 -50 44 -31 108 46 158 238 204 345 82 59 -67 74 -165 51 -313 -13 -79
-39 -130 -97 -192 -153 -164 -420 -151 -553 25 -89 118 -130 265 -113 406 42
333 345 560 663 496 216 -44 391 -207 451 -421 22 -78 19 -370 -5 -459 -38
-143 -107 -257 -214 -357 -119 -111 -243 -169 -408 -191 -151 -21 -329 16
-462 94 -82 48 -218 188 -276 286 -54 91 -110 242 -125 342 -53 327 81 678
337 884 356 286 841 287 1198 2 148 -119 277 -318 325 -501 40 -154 35 -394
-11 -605 -28 -125 -55 -202 -116 -330 -70 -147 -70 -152 35 -253 69 -67 83
-77 115 -77 40 0 94 41 97 75 4 48 -3 67 -38 106 l-36 40 22 47 c77 158 130
370 157 625 5 55 7 57 34 57 82 0 131 72 99 144 -14 29 -64 56 -107 56 -28 0
-30 2 -36 54 -20 172 -106 365 -250 561 -7 9 0 24 22 49 55 63 39 142 -32 166
-40 13 -78 1 -117 -36 l-26 -25 -84 57 c-144 98 -325 171 -472 189 -43 6 -57
11 -57 24 0 45 -23 93 -53 111 -38 24 -62 24 -99 4z"/>
<path d="M325 4466 c-160 -40 -284 -171 -315 -335 -6 -31 -10 -223 -10 -452
l0 -399 28 -30 c17 -19 40 -33 63 -36 31 -5 42 -1 70 24 l34 30 5 424 c6 473
4 463 78 530 60 54 133 70 217 47 53 -15 129 -91 144 -144 8 -28 11 -367 11
-1140 0 -1193 1 -1203 55 -1370 14 -44 45 -116 69 -160 61 -115 191 -309 222
-334 52 -41 123 -20 150 45 18 43 14 53 -80 194 -94 141 -158 269 -188 375
-21 77 -22 98 -26 650 -2 402 0 581 8 608 25 85 118 146 202 133 58 -9 113
-49 138 -100 19 -40 20 -61 20 -332 0 -417 17 -534 99 -710 81 -173 166 -272
371 -432 187 -147 221 -178 280 -251 61 -76 112 -173 142 -273 21 -69 22 -96
27 -520 l6 -448 26 -25 c14 -14 41 -28 61 -31 30 -5 41 -1 69 24 l34 30 3 409
c2 327 0 427 -12 505 -27 171 -94 321 -205 461 -59 74 -111 120 -332 296 -130
102 -181 156 -241 251 -108 171 -128 282 -128 725 0 335 -3 354 -68 453 -70
106 -181 165 -317 165 -58 0 -94 -5 -132 -20 l-53 -21 0 407 c0 328 -3 418
-15 464 -60 233 -283 369 -510 313z"/>
<path d="M4590 4466 c-112 -31 -218 -115 -266 -208 -51 -100 -54 -131 -54
-569 l0 -407 -52 21 c-39 15 -75 20 -133 20 -136 0 -247 -59 -317 -165 -65
-99 -68 -118 -68 -453 0 -443 -20 -554 -128 -725 -60 -95 -111 -149 -241 -251
-221 -176 -273 -222 -332 -296 -72 -91 -121 -178 -159 -282 -53 -145 -60 -223
-60 -673 l0 -408 27 -30 c18 -19 41 -33 64 -36 31 -5 42 -1 70 24 l34 30 6
449 c5 424 6 452 27 521 30 100 81 197 142 273 59 73 93 104 280 251 205 160
290 259 371 432 82 176 99 293 99 710 0 271 1 292 20 332 25 51 80 91 138 100
84 13 177 -48 202 -133 8 -27 10 -206 8 -608 -4 -552 -5 -573 -26 -650 -30
-106 -94 -234 -188 -375 -94 -141 -98 -151 -80 -194 27 -65 98 -86 150 -45 31
25 161 219 222 334 24 44 55 116 69 160 54 167 55 177 55 1370 0 773 3 1112
11 1140 15 53 91 129 144 144 86 24 158 7 220 -50 80 -74 75 10 75 -1273 0
-734 -4 -1173 -11 -1231 -24 -211 -77 -392 -169 -580 -78 -159 -106 -200 -428
-614 -151 -195 -281 -367 -289 -383 -9 -17 -12 -40 -8 -58 8 -35 57 -80 88
-80 53 0 90 39 354 380 148 190 289 374 314 410 186 264 305 592 339 929 14
140 14 2339 0 2412 -46 240 -292 398 -520 335z"/>
<path d="M65 3031 c-64 -27 -81 -110 -32 -158 60 -61 162 -19 162 67 0 66 -72
116 -130 91z"/>
<path d="M74 2653 c-12 -2 -32 -15 -45 -29 l-24 -26 -3 -371 c-5 -579 22 -769
155 -1086 89 -214 141 -292 518 -777 296 -382 319 -401 393 -339 38 31 49 75
29 113 -8 16 -138 188 -289 383 -322 414 -350 455 -428 614 -81 166 -124 301
-162 505 -5 30 -13 259 -16 507 l-7 453 -25 24 c-26 25 -61 35 -96 29z"/>
</g>
</svg>
