<?xml version="1.0" standalone="no"?>
<!DOCTYPE svg PUBLIC "-//W3C//DTD SVG 20010904//EN"
 "http://www.w3.org/TR/2001/REC-SVG-20010904/DTD/svg10.dtd">
<svg version="1.0" xmlns="http://www.w3.org/2000/svg"
 viewBox="0 0 512.000000 512.000000"
 preserveAspectRatio="xMidYMid meet">

<g transform="translate(0.000000,512.000000) scale(0.100000,-0.100000)"
fill="#000000" stroke="none">
<path d="M2345 4949 c-363 -38 -739 -186 -1034 -407 -95 -71 -273 -243 -357
-343 -94 -113 -187 -258 -259 -404 -417 -845 -211 -1871 499 -2481 60 -52 112
-94 115 -94 8 0 79 94 87 114 3 8 -30 43 -80 85 -540 459 -780 1167 -632 1866
75 355 259 690 520 951 598 595 1501 733 2245 343 364 -191 642 -475 825 -844
82 -165 121 -274 160 -446 154 -690 -94 -1422 -635 -1874 l-86 -72 43 -58 c24
-32 46 -60 49 -63 16 -16 266 218 372 348 508 630 606 1501 248 2225 -205 415
-537 748 -950 951 -346 170 -750 243 -1130 203z"/>
<path d="M2420 4154 c-208 -27 -407 -101 -580 -217 -96 -64 -273 -241 -337
-337 -95 -142 -163 -302 -199 -470 -25 -118 -26 -381 0 -498 34 -161 97 -315
181 -446 19 -30 40 -58 45 -61 10 -6 45 14 109 64 l24 18 -30 44 c-17 24 -49
81 -72 126 -276 551 -60 1214 488 1497 434 224 954 142 1301 -204 343 -344
427 -859 209 -1293 -23 -45 -55 -101 -71 -125 -17 -24 -28 -45 -25 -48 2 -2
31 -24 63 -48 l59 -44 38 56 c86 128 158 300 193 462 26 119 26 381 0 500 -55
257 -169 466 -355 651 -182 182 -382 293 -631 350 -83 19 -331 33 -410 23z"/>
<path d="M2527 3832 c-28 -11 -133 -150 -170 -222 -17 -36 -33 -67 -34 -68 -1
-2 -28 6 -60 17 -71 26 -259 52 -290 40 -12 -4 -29 -20 -39 -33 -14 -23 -15
-37 -4 -128 13 -117 44 -216 89 -287 39 -60 131 -149 191 -183 196 -114 533
-109 716 10 160 105 240 243 264 460 11 91 10 105 -4 128 -10 13 -27 29 -39
33 -31 12 -219 -14 -290 -40 -32 -11 -59 -19 -60 -17 -1 1 -17 32 -34 68 -37
72 -142 211 -170 222 -10 3 -25 7 -33 7 -8 0 -23 -4 -33 -7z m50 -219 c33 -42
73 -136 82 -192 17 -103 -17 -231 -84 -315 -15 -20 -15 -20 -30 0 -35 44 -75
136 -84 193 -17 102 7 200 72 298 26 38 26 38 44 16z m-374 -203 c82 -31 87
-37 97 -118 8 -61 25 -114 67 -210 4 -10 -4 -10 -33 3 -124 51 -212 165 -238
308 -7 36 -6 37 23 37 17 0 54 -9 84 -20z m821 -17 c-26 -143 -114 -257 -238
-308 -29 -13 -37 -13 -33 -3 47 112 59 150 67 210 4 39 13 75 18 80 18 18 127
58 160 58 33 0 33 0 26 -37z"/>
<path d="M2410 2706 c-90 -19 -189 -57 -256 -97 -457 -277 -528 -892 -146
-1261 l70 -68 -51 0 c-73 0 -169 -23 -303 -69 -205 -73 -272 -83 -589 -88
-301 -5 -318 -8 -331 -57 -6 -24 -7 -25 -154 -28 -132 -3 -152 -5 -176 -24
-42 -31 -65 -67 -71 -111 -8 -58 12 -106 65 -161 68 -69 127 -94 239 -100 86
-4 92 -6 97 -28 4 -13 17 -31 31 -40 22 -14 60 -16 332 -11 260 4 324 8 408
26 55 12 101 21 103 21 1 0 2 -101 2 -225 l0 -225 80 0 80 0 0 295 0 296 -25
24 c-30 31 -44 31 -149 0 -135 -39 -284 -55 -506 -55 l-200 0 0 119 0 118 227
6 c272 6 374 23 598 100 l150 51 243 4 242 4 -90 -150 c-49 -83 -90 -161 -90
-173 1 -13 60 -141 133 -284 112 -221 136 -261 160 -269 63 -22 72 -12 214
269 73 143 132 271 133 284 0 12 -41 90 -90 173 l-90 150 242 -4 243 -4 150
-51 c237 -82 371 -103 653 -103 l172 0 0 -120 0 -120 -201 0 c-222 0 -359 15
-502 55 -109 31 -122 31 -152 0 l-25 -24 0 -296 0 -295 80 0 80 0 0 225 c0
124 1 225 3 225 1 0 47 -9 102 -21 84 -18 148 -22 408 -26 272 -5 310 -3 332
11 14 9 27 27 31 40 5 22 11 24 102 28 120 7 175 29 242 98 55 56 75 104 67
163 -6 44 -29 80 -71 111 -24 19 -44 21 -181 24 -153 3 -153 3 -159 28 -13 49
-31 52 -326 57 -311 4 -391 16 -597 89 -131 45 -228 68 -300 68 l-51 0 70 68
c373 359 315 958 -120 1243 -74 49 -142 78 -242 106 -78 21 -260 26 -340 9z
m285 -161 c125 -26 278 -118 353 -212 l31 -40 -112 38 c-125 42 -282 69 -407
69 -125 0 -282 -27 -407 -69 l-112 -38 31 39 c74 94 225 186 348 212 86 19
189 19 275 1z m35 -320 c120 -18 231 -54 339 -111 135 -70 126 -56 126 -192 0
-93 -5 -131 -22 -187 -63 -199 -229 -365 -428 -428 -57 -18 -93 -22 -190 -22
-104 1 -130 5 -193 27 -105 38 -176 83 -257 163 -127 126 -192 297 -182 478 5
101 0 95 127 161 209 109 443 147 680 111z m-93 -1307 l71 -121 -71 -144 c-39
-78 -74 -143 -77 -143 -3 0 -38 65 -77 143 l-71 144 71 121 c40 67 74 122 77
122 3 0 37 -55 77 -122z m-1837 -78 l0 -40 -65 0 c-74 0 -119 16 -154 54 l-24
26 121 0 122 0 0 -40z m3749 14 c-35 -39 -80 -54 -159 -54 l-70 0 0 40 0 40
127 0 126 0 -24 -26z"/>
<path d="M2000 1984 c0 -108 125 -224 240 -224 115 0 240 116 240 224 0 13
-12 16 -77 16 -78 0 -78 0 -93 -33 -29 -62 -111 -62 -140 0 -15 33 -15 33 -92
33 -66 0 -78 -3 -78 -16z"/>
<path d="M2640 1984 c0 -108 125 -224 240 -224 115 0 240 116 240 224 0 13
-12 16 -77 16 -78 0 -78 0 -93 -33 -29 -62 -111 -62 -140 0 -15 33 -15 33 -92
33 -66 0 -78 -3 -78 -16z"/>
<path d="M320 1280 l0 -80 80 0 80 0 0 80 0 80 -80 0 -80 0 0 -80z"/>
<path d="M4640 1280 l0 -80 80 0 80 0 0 80 0 80 -80 0 -80 0 0 -80z"/>
</g>
</svg>
