<?xml version="1.0" standalone="no"?>
<!DOCTYPE svg PUBLIC "-//W3C//DTD SVG 20010904//EN"
 "http://www.w3.org/TR/2001/REC-SVG-20010904/DTD/svg10.dtd">
<svg version="1.0" xmlns="http://www.w3.org/2000/svg"
 viewBox="0 0 512.000000 512.000000"
 preserveAspectRatio="xMidYMid meet">

<g transform="translate(0.000000,512.000000) scale(0.100000,-0.100000)"
fill="#000000" stroke="none">
<path d="M1455 4870 c-698 -136 -1283 -253 -1298 -259 -78 -31 -143 -119 -153
-208 -4 -37 80 -487 375 -2006 210 -1077 388 -1971 396 -1986 44 -85 131 -141
220 -141 28 0 156 21 285 46 129 25 267 51 307 59 62 12 77 12 110 0 21 -8
279 -48 573 -89 294 -42 873 -123 1285 -181 497 -71 765 -105 793 -101 94 12
179 80 206 164 24 75 569 3959 562 4010 -11 80 -68 158 -144 196 -21 11 -346
61 -965 148 -512 72 -933 132 -935 133 -1 1 -15 68 -31 148 -31 160 -57 218
-114 261 -44 34 -110 56 -161 55 -22 -1 -612 -113 -1311 -249z m1349 70 c14
-5 30 -18 36 -30 11 -21 52 -221 47 -227 -2 -1 -113 13 -248 33 -311 45 -349
46 -422 10 -31 -15 -65 -38 -75 -51 -17 -21 -73 -34 -618 -140 -368 -71 -615
-124 -641 -136 -58 -28 -108 -90 -133 -163 -32 -97 -88 -182 -162 -249 -82
-73 -118 -138 -118 -214 0 -63 483 -2554 506 -2613 21 -51 99 -122 155 -140
96 -30 175 -80 266 -170 50 -49 102 -92 115 -95 24 -6 24 -8 24 -110 -1 -95
-3 -104 -21 -109 -73 -18 -492 -96 -515 -96 -15 0 -38 8 -50 18 -21 17 -58
197 -402 1968 -268 1377 -377 1956 -371 1973 17 49 44 57 503 146 750 145
1096 212 1590 309 261 52 483 94 492 95 9 1 28 -3 42 -9z m816 -535 c690 -96
1266 -181 1280 -188 61 -31 77 116 -225 -2022 -186 -1323 -281 -1967 -291
-1983 -29 -45 -45 -45 -279 -12 -121 17 -409 57 -640 90 -231 33 -710 100
-1065 150 -709 100 -692 96 -698 165 -4 45 535 3887 550 3929 12 31 60 57 93
51 11 -3 585 -84 1275 -180z m-1560 38 c0 -17 -146 -1060 -156 -1120 -6 -29
-10 -33 -38 -33 -63 -1 -173 -31 -251 -69 -135 -67 -243 -191 -296 -341 -31
-87 -34 -276 -5 -360 60 -179 194 -322 357 -381 32 -12 59 -27 59 -33 0 -6
-37 -276 -82 -600 l-83 -588 -50 55 c-83 91 -197 166 -302 197 -83 25 -61 -65
-328 1311 -135 690 -245 1268 -245 1285 0 27 14 46 88 120 90 92 142 174 177
281 9 28 25 59 34 67 11 10 140 40 352 81 184 36 422 83 529 105 226 45 240
46 240 23z m-190 -1345 c0 -31 -110 -801 -115 -807 -2 -2 -30 9 -61 24 -106
52 -196 167 -223 286 -51 219 93 450 314 505 74 18 85 17 85 -8z"/>
<path d="M372 4330 c-46 -43 -37 -107 19 -139 51 -29 119 14 119 76 0 70 -87
110 -138 63z"/>
<path d="M1073 760 c-29 -12 -56 -65 -47 -93 3 -12 16 -32 27 -44 44 -49 137
-14 137 52 0 47 -8 64 -41 80 -32 17 -44 18 -76 5z"/>
<path d="M2415 4325 c-35 -34 -33 -78 4 -116 18 -17 40 -29 56 -29 32 0 85 49
85 80 0 29 -26 76 -45 84 -35 13 -76 6 -100 -19z"/>
<path d="M2898 4310 c-52 -15 -97 -51 -148 -116 -62 -79 -109 -114 -225 -169
-100 -47 -157 -97 -180 -160 -23 -61 -378 -2601 -371 -2653 9 -69 39 -112 140
-206 92 -83 100 -94 151 -201 60 -127 97 -166 180 -190 64 -20 1172 -176 1247
-177 90 0 151 33 224 122 65 80 139 137 224 172 110 44 165 97 189 184 7 21
93 615 192 1319 196 1398 189 1320 135 1410 -13 21 -52 61 -87 89 -81 65 -132
133 -167 220 -33 83 -97 158 -154 181 -45 18 -1211 186 -1281 184 -23 0 -54
-4 -69 -9z m690 -244 c332 -47 599 -89 607 -96 8 -7 38 -60 66 -119 47 -98 60
-114 157 -210 98 -96 106 -107 105 -140 -2 -69 -354 -2532 -365 -2555 -5 -13
-20 -28 -32 -34 -186 -86 -258 -136 -332 -232 -26 -32 -58 -63 -73 -68 -19 -6
-191 14 -621 75 -327 46 -605 88 -617 93 -14 6 -39 46 -71 112 -57 116 -108
182 -200 258 -34 28 -64 62 -67 73 -3 12 76 598 175 1302 202 1433 176 1305
277 1344 109 42 193 108 309 244 23 27 39 37 60 37 16 0 296 -38 622 -84z"/>
<path d="M3494 3270 c-88 -44 -116 -138 -74 -255 28 -77 37 -196 20 -266 -65
-276 -354 -436 -613 -339 -68 25 -133 28 -175 6 -65 -34 -111 -123 -97 -189
20 -94 136 -256 247 -347 74 -60 216 -131 308 -154 393 -98 813 122 958 502
43 110 55 182 54 307 -1 307 -170 580 -445 722 -73 38 -124 42 -183 13z m219
-238 c149 -117 240 -308 240 -507 0 -183 -59 -322 -192 -455 -125 -125 -245
-182 -411 -196 -191 -16 -403 74 -528 224 -49 59 -100 147 -91 156 3 3 34 -4
69 -15 89 -29 225 -35 318 -15 126 26 215 76 312 175 97 98 138 170 172 303
25 101 21 237 -11 338 -11 36 -21 68 -21 73 0 13 82 -34 143 -81z"/>
<path d="M4635 3985 c-25 -24 -32 -65 -19 -100 8 -19 55 -45 84 -45 31 0 80
53 80 85 0 16 -12 38 -29 56 -38 37 -82 39 -116 4z"/>
<path d="M1905 825 c-76 -75 37 -191 116 -119 37 34 32 99 -10 131 -27 21 -79
15 -106 -12z"/>
<path d="M4125 485 c-41 -40 -33 -105 16 -130 39 -21 64 -19 95 9 21 18 28 32
28 61 0 74 -88 112 -139 60z"/>
<path d="M1612 3943 c-7 -3 -19 -18 -27 -34 -14 -27 -13 -44 21 -221 31 -157
42 -196 60 -215 43 -43 124 -23 138 32 4 15 -9 105 -29 213 -41 210 -52 233
-114 231 -20 0 -42 -3 -49 -6z"/>
<path d="M1003 3650 c-36 -15 -56 -55 -49 -95 6 -32 22 -45 168 -145 133 -91
168 -110 198 -110 76 0 109 89 53 142 -43 39 -298 207 -325 212 -12 3 -33 1
-45 -4z"/>
<path d="M1502 1919 c-13 -11 -67 -87 -122 -169 -110 -164 -119 -192 -75 -235
30 -31 86 -34 114 -6 42 42 221 323 221 347 0 35 -51 84 -87 84 -16 0 -39 -9
-51 -21z"/>
</g>
</svg>
